<?xml version="1.0" encoding="utf-8"?>
<!-- Generator: Adobe Illustrator 17.0.0, SVG Export Plug-In . SVG Version: 6.00 Build 0)  -->
<!DOCTYPE svg PUBLIC "-//W3C//DTD SVG 1.0//EN" "http://www.w3.org/TR/2001/REC-SVG-20010904/DTD/svg10.dtd">
<svg version="1.0" id="Capa_1" xmlns="http://www.w3.org/2000/svg" xmlns:xlink="http://www.w3.org/1999/xlink" x="0px" y="0px"
	 width="500px" height="500px" viewBox="0 0 500 500" enable-background="new 0 0 500 500" xml:space="preserve">
<linearGradient id="SVGID_1_" gradientUnits="userSpaceOnUse" x1="122.3938" y1="-95.2449" x2="472.7932" y2="255.1545" gradientTransform="matrix(1 0 0 -1 -47.6 331.1)">
	<stop  offset="0" style="stop-color:#FFFFFF"/>
	<stop  offset="0.5" style="stop-color:#FFFFFF"/>
	<stop  offset="0.6969" style="stop-color:#FBFBFB"/>
	<stop  offset="0.9005" style="stop-color:#EEEEEE"/>
	<stop  offset="1" style="stop-color:#E6E6E6"/>
</linearGradient>
<path fill="url(#SVGID_1_)" d="M449.442,104.116C404.318,43.007,331.791,3.367,249.999,3.367
	C113.153,3.367,2.218,114.303,2.218,251.148c0,125.395,93.155,229.019,214.032,245.484c0.055-61.103,0.079-122.204,0.24-183.306
	c0.014-5.009-1.919-6.566-6.75-6.51c-16.616,0.194-33.24-0.131-49.854,0.168c-5.999,0.107-8.437-1.503-8.324-7.987
	c0.36-20.649,0.315-41.311,0.02-61.962c-0.083-5.78,2.055-7.387,7.48-7.31c16.379,0.232,32.771-0.232,49.14,0.224
	c6.764,0.188,8.389-2.263,8.366-8.583c-0.073-19.457-0.548-38.99,0.927-58.357c2.724-35.804,18.014-64.144,52.298-79.402
	c14.288-6.358,29.583-8.88,45.112-8.664c17.313,0.24,34.608,1.493,51.918,2.18c4.661,0.184,6.742,1.996,6.692,6.944
	c-0.188,18.755-0.224,37.513,0.018,56.266c0.071,5.597-2.552,6.837-7.378,6.797c-12.819-0.103-25.671-0.481-38.448,0.279
	c-6.445,0.384-13.698,1.59-18.856,5.023c-4.825,3.21-9.983,9.631-10.441,15.024c-1.641,19.337-1.394,38.836-1.758,58.275
	c-0.091,4.853,3.742,4.031,6.682,4.039c19.23,0.053,38.461,0.02,57.693,0.038c9.266,0.008,9.367,0.044,8.27,9.229
	c-2.39,20.02-4.986,40.016-7.294,60.044c-0.657,5.698-2.913,8.094-9.064,7.938c-16.133-0.408-32.292,0.129-48.427-0.265
	c-6.251-0.152-8.096,1.754-8.072,8.043c0.22,58.404,0.137,116.808,0.107,175.214c0,1.523-0.079,3.047-0.18,4.57
	c62.528-11.838,116.741-47.16,153.123-96.458c30.345-41.119,48.292-91.947,48.292-146.973
	C497.78,196.094,479.816,145.244,449.442,104.116z"/>
</svg>
