<?xml version="1.0" encoding="utf-8"?>
<!-- Generator: Adobe Illustrator 17.0.0, SVG Export Plug-In . SVG Version: 6.00 Build 0)  -->
<!DOCTYPE svg PUBLIC "-//W3C//DTD SVG 1.1//EN" "http://www.w3.org/Graphics/SVG/1.1/DTD/svg11.dtd">
<svg version="1.1" id="Capa_1" xmlns="http://www.w3.org/2000/svg" xmlns:xlink="http://www.w3.org/1999/xlink" x="0px" y="0px"
	 width="500px" height="500px" viewBox="0 0 500 500" enable-background="new 0 0 500 500" xml:space="preserve">
<linearGradient id="SVGID_1_" gradientUnits="userSpaceOnUse" x1="75.4796" y1="73.9207" x2="425.8898" y2="424.3311" gradientTransform="matrix(1 0 0 -1 0.04 500.155)">
	<stop  offset="0" style="stop-color:#FFFFFF"/>
	<stop  offset="0.5" style="stop-color:#FFFFFF"/>
	<stop  offset="0.6969" style="stop-color:#FBFBFB"/>
	<stop  offset="0.9005" style="stop-color:#EEEEEE"/>
	<stop  offset="1" style="stop-color:#E6E6E6"/>
</linearGradient>
<path fill="url(#SVGID_1_)" d="M498.496,250.144C498.049,122.097,400.482,16.938,275.61,4.485
	c-8.183-0.816-16.484-1.239-24.883-1.239c-8.399,0-16.697,0.424-24.881,1.239C100.738,16.961,3.031,122.491,2.948,250.865
	c0,0.053-0.002,0.109-0.002,0.162s0.002,0.109,0.002,0.162c0.087,136.77,110.987,247.619,247.779,247.619
	c136.551,0,247.292-110.46,247.769-246.898c0.002-0.295,0.012-0.588,0.012-0.883C498.506,250.732,498.496,250.439,498.496,250.144z
	 M381.67,189.974c-5.809,4.805-7.876,9.52-7.863,16.998c0.143,68.66-44.706,134.979-108.652,159.133
	c-51.189,19.337-101.398,15.791-149.64-10.686c-1.438-0.788-2.829-1.663-4.209-2.546c-0.319-0.204-0.505-0.614-1.317-1.647
	c32.171,2.382,60.802-5.57,87.411-25.633c-27.94-2.752-46.338-16.371-56.846-42.188c8.961,0,17.046,0,25.128,0
	c0.184-0.576,0.37-1.152,0.554-1.729c-13.343-3.843-24.811-10.486-33.426-21.329c-8.688-10.936-13.373-23.289-13.371-37.248
	c8.427,2.295,16.598,4.518,24.772,6.742c0.362-0.43,0.723-0.861,1.085-1.291c-25.984-22.206-32.27-48.583-17.822-80.6
	c33.401,38.925,74.842,60.049,125.538,63.649c0-8.235-1.012-16.084,0.188-23.58c3.756-23.455,17.307-39.701,39.539-47.714
	c22.366-8.061,42.912-3.297,60.812,12.102c3.047,2.622,5.528,3.711,9.211,2.392c10.581-3.786,21.186-7.502,32.27-11.419
	c-4.346,12.824-12.947,22.627-24.306,30.421c0.285,0.473,0.568,0.946,0.853,1.42c10.163-2.717,20.327-5.433,30.488-8.15
	c0.374,0.285,0.746,0.572,1.121,0.857C396.079,175.357,389.537,183.467,381.67,189.974z"/>
</svg>
