<?xml version="1.0" encoding="utf-8"?>
<!-- Generator: Adobe Illustrator 17.0.0, SVG Export Plug-In . SVG Version: 6.00 Build 0)  -->
<!DOCTYPE svg PUBLIC "-//W3C//DTD SVG 1.0//EN" "http://www.w3.org/TR/2001/REC-SVG-20010904/DTD/svg10.dtd">
<svg version="1.0" xmlns="http://www.w3.org/2000/svg" xmlns:xlink="http://www.w3.org/1999/xlink" x="0px" y="0px"
	 width="1410.62px" height="989.25px" viewBox="0 0 1410.62 989.25" enable-background="new 0 0 1410.62 989.25"
	 xml:space="preserve">
<g id="Capa_1">
</g>
<g id="svg2">
	<g>
		<path fill="#FFFFFF" d="M64.239,915.313c0,15.87,12.985,28.855,28.855,28.855s28.855-12.985,28.855-28.855v-92.337H93.094v16.351
			h12.744v76.226c0,6.973-5.771,12.744-12.744,12.744s-12.744-5.771-12.744-12.744H64.239V915.313z"/>
		<path fill="#FFFFFF" d="M189.279,822.975v92.337c0,6.973-5.771,12.744-12.744,12.744c-6.973,0-12.744-5.771-12.744-12.744v-92.337
			h-28.855v16.351h12.744v76.226c0,15.87,12.985,28.855,28.855,28.855s28.855-12.985,28.855-28.855v-92.337L189.279,822.975
			L189.279,822.975z"/>
		<polygon fill="#FFFFFF" points="272.479,880.205 247.23,848.945 247.23,944.409 230.879,944.409 230.879,839.086 218.135,839.086 
			218.135,822.975 247.23,822.975 272.479,854.476 272.479,822.975 288.59,822.975 288.59,944.409 272.479,944.409 		"/>
		<polygon fill="#FFFFFF" points="333.797,944.409 333.797,839.086 350.148,839.086 350.148,822.975 301.334,822.975 
			301.334,839.086 317.686,839.086 317.686,944.409 		"/>
		<path fill="#FFFFFF" d="M362.892,839.086v-16.351h37.752c9.378,0,16.832,6.733,18.275,15.87l16.351,105.563H418.92l-7.935-50.978
			h-23.806l-7.935,50.978h-16.351l16.351-105.082H362.892L362.892,839.086z M395.595,839.086l-6.012,37.993h18.756l-5.531-35.829
			c-0.24-1.202-1.202-2.164-2.405-2.164H395.595L395.595,839.086z"/>
		<polygon fill="#FFFFFF" points="577.144,822.975 577.144,839.086 589.888,839.086 589.888,944.168 642.068,944.168 
			638.702,928.057 606.24,928.057 606.24,893.431 622.351,893.431 622.351,877.079 606.24,877.079 606.24,839.086 638.702,839.086 
			638.702,822.975 		"/>
		<path fill="#FFFFFF" d="M531.456,928.057v-88.73h12.985c6.973,0,12.504,5.771,12.504,12.744v63.482
			c0,6.973-5.771,12.744-12.744,12.744L531.456,928.057L531.456,928.057z M544.441,944.168c15.87,0,28.615-12.985,28.615-28.855
			v-63.482c0-15.87-12.985-28.855-28.855-28.855h-41.6v16.351h12.744v105.082L544.441,944.168L544.441,944.168z"/>
		<path fill="#FFFFFF" d="M1274.002,839.086v-16.351h37.753c9.378,0,16.832,6.733,18.275,15.87l16.351,105.563h-16.351
			l-7.935-50.978h-23.806l-7.935,50.978h-16.351l16.351-105.082H1274.002L1274.002,839.086z M1306.705,839.086l-6.012,37.993h18.756
			l-5.531-35.829c-0.24-1.202-1.202-2.164-2.405-2.164H1306.705L1306.705,839.086z"/>
		<polygon fill="#FFFFFF" points="840.209,880.205 814.96,848.945 814.96,944.409 798.609,944.409 798.609,839.086 785.865,839.086 
			785.865,822.975 814.96,822.975 840.209,854.476 840.209,822.975 856.32,822.975 856.32,944.409 840.209,944.409 		"/>
		<path fill="#FFFFFF" d="M708.917,839.086v-16.351h37.753c9.378,0,16.832,6.733,18.275,15.87l16.351,105.563h-16.351l-7.935-50.978
			h-23.806l-7.935,50.978h-16.351l16.351-105.082H708.917L708.917,839.086z M741.86,839.086l-6.012,37.993h18.756l-5.531-35.829
			c-0.24-1.202-1.202-2.164-2.405-2.164H741.86L741.86,839.086z"/>
		<path fill="#FFFFFF" d="M911.145,944.168c15.87,0,28.615-12.985,28.615-28.855v-63.482c0-15.87-12.985-28.855-28.855-28.855h-41.6
			v16.351h12.744v105.082L911.145,944.168L911.145,944.168z M898.401,928.057v-88.73h12.985c6.973,0,12.504,5.771,12.504,12.744
			v63.482c0,6.973-5.771,12.744-12.744,12.744L898.401,928.057L898.401,928.057z"/>
		<path fill="#FFFFFF" d="M957.314,839.327v-16.351h37.753c9.378,0,16.832,6.733,18.275,15.87l16.351,105.563h-16.351l-7.935-50.978
			H981.6l-7.935,50.978h-16.351l16.351-105.082H957.314L957.314,839.327z M990.016,839.327l-6.012,37.993h18.756l-5.531-35.829
			c-0.24-1.202-1.202-2.164-2.405-2.164H990.016L990.016,839.327z"/>
		<path fill="#FFFFFF" d="M1142.95,822.975v92.337c0,6.973-5.771,12.744-12.745,12.744s-12.744-5.771-12.744-12.744v-92.337h-29.096
			v16.351h12.745v76.226c0,15.87,12.985,28.855,28.855,28.855s28.855-12.985,28.855-28.855v-92.337L1142.95,822.975L1142.95,822.975
			z"/>
		<path fill="#FFFFFF" d="M1214.848,839.086h-12.985c-6.973,0-12.504,5.771-12.504,12.744v63.482
			c0,6.973,5.771,12.744,12.745,12.744h12.744l3.367,16.351h-16.351c-15.87,0-28.615-12.985-28.615-28.855v-63.482
			c0-15.87,12.985-28.855,28.855-28.855h12.504L1214.848,839.086L1214.848,839.086z"/>
		<polygon fill="#FFFFFF" points="1256.929,944.168 1256.929,822.975 1227.833,822.975 1227.833,839.086 1240.578,839.086 
			1240.578,944.168 		"/>
		<polygon fill="#FFFFFF" points="1033.54,822.975 1033.54,839.086 1046.285,839.086 1046.285,944.168 1098.465,944.168 
			1095.098,928.057 1062.636,928.057 1062.636,839.086 1062.636,839.086 1062.636,822.975 		"/>
		<path fill="#FFFFFF" d="M705.55,142.469c198.381,0.481,396.281,76.226,547.531,227.477c35.348,35.348,66.367,73.1,93.54,112.777
			c-33.665-85.845-85.124-166.399-154.617-235.652C1057.586,112.652,881.568,45.322,705.31,44.841
			c-176.258,0.481-352.276,67.81-486.694,202.228C149.122,316.563,97.663,396.877,63.999,482.722
			c27.172-39.676,58.192-77.669,93.54-112.777C309.029,218.695,507.169,142.95,705.55,142.469L705.55,142.469z"/>
		<polygon fill="#FFFFFF" points="794.762,725.829 616.099,725.829 705.31,434.149 		"/>
		<path fill="#FFFFFF" d="M705.55,337.243c154.136,0.481,308.031,59.394,425.377,176.98c22.123,22.122,42.321,45.688,60.356,70.215
			c-25.008-70.455-64.925-136.823-121.433-193.091c-100.753-100.753-232.527-151.25-364.54-151.731
			c-132.013,0.481-263.786,50.978-364.54,151.731c-56.268,56.268-96.425,122.635-121.433,193.091
			c18.035-24.527,38.233-48.092,60.356-70.215C397.278,396.637,551.414,337.724,705.55,337.243L705.55,337.243z"/>
	</g>
</g>
</svg>
